<svg width="18" height="20" viewBox="0 0 18 20" fill="none" xmlns="http://www.w3.org/2000/svg">
<path d="M6.82936 16.1426L7.3164 17.238C7.46118 17.564 7.69747 17.8411 7.99659 18.0355C8.29571 18.2299 8.64483 18.3334 9.00159 18.3333C9.35835 18.3334 9.70746 18.2299 10.0066 18.0355C10.3057 17.8411 10.542 17.564 10.6868 17.238L11.1738 16.1426C11.3472 15.7539 11.6388 15.4299 12.0071 15.2167C12.3778 15.0029 12.8066 14.9118 13.2321 14.9565L14.4238 15.0833C14.7785 15.1208 15.1365 15.0547 15.4544 14.8928C15.7722 14.7309 16.0363 14.4803 16.2145 14.1713C16.393 13.8625 16.4781 13.5086 16.4593 13.1524C16.4406 12.7962 16.3189 12.4532 16.109 12.1648L15.4034 11.1954C15.1522 10.8476 15.018 10.429 15.0201 9.99999C15.02 9.57215 15.1555 9.15528 15.4071 8.80925L16.1127 7.8398C16.3226 7.55145 16.4443 7.20838 16.463 6.85222C16.4818 6.49605 16.3967 6.14211 16.2183 5.83332C16.04 5.52435 15.7759 5.27373 15.4581 5.11185C15.1402 4.94996 14.7822 4.88377 14.4275 4.92129L13.2358 5.04814C12.8103 5.09283 12.3815 5.00176 12.0108 4.78795C11.6418 4.57353 11.3501 4.24779 11.1775 3.8574L10.6868 2.76203C10.542 2.43597 10.3057 2.15892 10.0066 1.96449C9.70746 1.77006 9.35835 1.6666 9.00159 1.66666C8.64483 1.6666 8.29571 1.77006 7.99659 1.96449C7.69747 2.15892 7.46118 2.43597 7.3164 2.76203L6.82936 3.8574C6.6568 4.24779 6.36509 4.57353 5.99603 4.78795C5.62538 5.00176 5.19659 5.09283 4.77103 5.04814L3.57566 4.92129C3.22094 4.88377 2.86294 4.94996 2.54509 5.11185C2.22724 5.27373 1.96317 5.52435 1.78492 5.83332C1.60644 6.14211 1.52141 6.49605 1.54014 6.85222C1.55888 7.20838 1.68058 7.55145 1.89048 7.8398L2.59603 8.80925C2.84765 9.15528 2.98315 9.57215 2.98307 9.99999C2.98315 10.4278 2.84765 10.8447 2.59603 11.1907L1.89048 12.1602C1.68058 12.4485 1.55888 12.7916 1.54014 13.1478C1.52141 13.5039 1.60644 13.8579 1.78492 14.1667C1.96335 14.4755 2.22744 14.726 2.54525 14.8878C2.86306 15.0497 3.22096 15.116 3.57566 15.0787L4.76733 14.9518C5.19288 14.9072 5.62167 14.9982 5.99233 15.212C6.36277 15.4258 6.65583 15.7517 6.82936 16.1426Z" stroke="#007AB6" stroke-width="1.66667" stroke-linecap="round" stroke-linejoin="round"/>
<path d="M9.0001 12.5C10.3808 12.5 11.5001 11.3807 11.5001 9.99999C11.5001 8.61928 10.3808 7.49999 9.0001 7.49999C7.61939 7.49999 6.5001 8.61928 6.5001 9.99999C6.5001 11.3807 7.61939 12.5 9.0001 12.5Z" stroke="#007AB6" stroke-width="1.66667" stroke-linecap="round" stroke-linejoin="round"/>
</svg>
