<svg width="15" height="15" viewBox="0 0 15 15" fill="none" xmlns="http://www.w3.org/2000/svg">
<path d="M6.15609 13.5833C6.15609 13.8734 6.27132 14.1516 6.47644 14.3567C6.68156 14.5618 6.95976 14.6771 7.24984 14.6771C7.53992 14.6771 7.81812 14.5618 8.02324 14.3567C8.22835 14.1516 8.34359 13.8734 8.34359 13.5833V8.84374H13.0832C13.3733 8.84374 13.6515 8.72851 13.8566 8.52339C14.0617 8.31827 14.1769 8.04007 14.1769 7.74999C14.1769 7.45991 14.0617 7.18171 13.8566 6.97659C13.6515 6.77147 13.3733 6.65624 13.0832 6.65624H8.34359V1.91666C8.34359 1.62658 8.22835 1.34838 8.02324 1.14326C7.81812 0.938141 7.53992 0.822906 7.24984 0.822906C6.95976 0.822906 6.68156 0.938141 6.47644 1.14326C6.27132 1.34838 6.15609 1.62658 6.15609 1.91666V6.65624H1.4165C1.12642 6.65624 0.848224 6.77147 0.643106 6.97659C0.437988 7.18171 0.322754 7.45991 0.322754 7.74999C0.322754 8.04007 0.437988 8.31827 0.643106 8.52339C0.848224 8.72851 1.12642 8.84374 1.4165 8.84374H6.15609V13.5833Z" fill="#667085"/>
</svg>
