<svg width="17" height="16" viewBox="0 0 17 16" fill="none" xmlns="http://www.w3.org/2000/svg">
<path d="M7.29004 10H3.54004C2.98804 10 2.54004 9.552 2.54004 9V7C2.54004 6.448 2.98804 6 3.54004 6H7.29004V4H1.04004C0.488039 4 0.0400391 3.552 0.0400391 3V1C0.0400391 0.448 0.488039 0 1.04004 0H10.04C10.592 0 11.04 0.448 11.04 1V3C11.04 3.552 10.592 4 10.04 4H8.79004V6H12.54C13.092 6 13.54 6.448 13.54 7V9C13.54 9.552 13.092 10 12.54 10H8.79004V12H15.04C15.592 12 16.04 12.448 16.04 13V15C16.04 15.552 15.592 16 15.04 16H6.04004C5.48804 16 5.04004 15.552 5.04004 15V13C5.04004 12.448 5.48804 12 6.04004 12H7.29004V10ZM14.607 13.5H6.54004V14.5H14.607V13.5ZM12.107 7.5H4.04004V8.5H12.107V7.5ZM9.60704 1.5H1.54004V2.5H9.60704V1.5Z" fill="#667085"/>
</svg>
