<svg width="17" height="16" viewBox="0 0 17 16" fill="none" xmlns="http://www.w3.org/2000/svg">
<path d="M2.04004 16C3.14004 16 4.04004 15.1 4.04004 14V7C4.04004 5.9 3.14004 5 2.04004 5C0.940039 5 0.0400391 5.9 0.0400391 7V14C0.0400391 15.1 0.940039 16 2.04004 16ZM12.04 11V14C12.04 15.1 12.94 16 14.04 16C15.14 16 16.04 15.1 16.04 14V11C16.04 9.9 15.14 9 14.04 9C12.94 9 12.04 9.9 12.04 11ZM8.04004 16C9.14004 16 10.04 15.1 10.04 14V2C10.04 0.9 9.14004 0 8.04004 0C6.94004 0 6.04004 0.9 6.04004 2V14C6.04004 15.1 6.94004 16 8.04004 16Z" fill="#667085"/>
</svg>
