<svg width="15" height="15" viewBox="0 0 15 15" fill="none" xmlns="http://www.w3.org/2000/svg">
<path fill-rule="evenodd" clip-rule="evenodd" d="M0.0400391 6.49917C0.0401724 5.45143 0.29358 4.41925 0.778672 3.49057C1.26376 2.5619 1.96616 1.76424 2.82602 1.16558C3.68588 0.566913 4.67772 0.184978 5.71702 0.052316C6.75633 -0.0803464 7.81231 0.0401951 8.79498 0.40367C9.77765 0.767146 10.6579 1.36278 11.3607 2.13983C12.0635 2.91688 12.5681 3.85231 12.8314 4.86642C13.0947 5.88053 13.109 6.94327 12.873 7.96408C12.637 8.9849 12.1577 9.93354 11.476 10.7292L14.894 14.1452L14.187 14.8532L10.769 11.4352C9.82512 12.2439 8.66912 12.765 7.43807 12.9367C6.20703 13.1084 4.95255 12.9236 3.82335 12.4041C2.69415 11.8846 1.73758 11.0522 1.06703 10.0056C0.396482 8.95904 0.0400674 7.74214 0.0400391 6.49917ZM6.04004 8.99917V6.99917H4.04004V5.99917H6.04004V3.99917H7.04004V5.99917H9.04004V6.99917H7.04004V8.99917H6.04004Z" fill="#667085"/>
</svg>
