<svg width="14" height="15" viewBox="0 0 14 15" fill="none" xmlns="http://www.w3.org/2000/svg">
<path d="M13.1718 2.25C13.3634 2.25 13.5471 2.32902 13.6825 2.46967C13.818 2.61032 13.894 2.80109 13.894 3C13.894 3.19891 13.818 3.38968 13.6825 3.53033C13.5471 3.67098 13.3634 3.75 13.1718 3.75H12.4496L12.4474 3.80325L11.7736 13.6065C11.7477 13.9849 11.5846 14.3391 11.3172 14.5977C11.0499 14.8563 10.6981 15 10.3328 15H4.4546C4.08925 15 3.73748 14.8563 3.47013 14.5977C3.20277 14.3391 3.0397 13.9849 3.01377 13.6065L2.33993 3.804C2.33884 3.78602 2.33835 3.76801 2.33849 3.75H1.61627C1.42472 3.75 1.24102 3.67098 1.10558 3.53033C0.970134 3.38968 0.894043 3.19891 0.894043 3C0.894043 2.80109 0.970134 2.61032 1.10558 2.46967C1.24102 2.32902 1.42472 2.25 1.61627 2.25H13.1718ZM8.83849 0C9.03003 0 9.21373 0.0790176 9.34918 0.21967C9.48462 0.360322 9.56071 0.551088 9.56071 0.75C9.56071 0.948912 9.48462 1.13968 9.34918 1.28033C9.21373 1.42098 9.03003 1.5 8.83849 1.5H5.9496C5.75805 1.5 5.57435 1.42098 5.43891 1.28033C5.30347 1.13968 5.22738 0.948912 5.22738 0.75C5.22738 0.551088 5.30347 0.360322 5.43891 0.21967C5.57435 0.0790176 5.75805 0 5.9496 0H8.83849Z" fill="#667085"/>
</svg>
