<svg width="17" height="17" viewBox="0 0 17 17" fill="none" xmlns="http://www.w3.org/2000/svg">
<path d="M10.7667 0C11.2175 0 11.6499 0.179107 11.9687 0.497918C12.2876 0.81673 12.4667 1.24913 12.4667 1.7V4.53333H15.3C15.7509 4.53333 16.1833 4.71244 16.5021 5.03125C16.8209 5.35006 17 5.78247 17 6.23333V15.3C17 15.7509 16.8209 16.1833 16.5021 16.5021C16.1833 16.8209 15.7509 17 15.3 17H6.23333C5.78246 17 5.35006 16.8209 5.03125 16.5021C4.71244 16.1833 4.53333 15.7509 4.53333 15.3V12.4667H1.7C1.24913 12.4667 0.81673 12.2876 0.497919 11.9687C0.179106 11.6499 0 11.2175 0 10.7667V1.7C0 1.24913 0.179106 0.81673 0.497919 0.497918C0.81673 0.179107 1.24913 0 1.7 0L10.7667 0Z" fill="#667085"/>
</svg>
