<svg width="18" height="16" viewBox="0 0 18 16" fill="none" xmlns="http://www.w3.org/2000/svg">
<path d="M13.7443 3.23H3.74429V0H13.7443V3.23ZM14.3603 7.5C14.6436 7.5 14.881 7.404 15.0723 7.212C15.2636 7.02 15.3596 6.78267 15.3603 6.5C15.361 6.21733 15.265 5.97967 15.0723 5.787C14.8796 5.59433 14.6423 5.49833 14.3603 5.499C14.0783 5.49967 13.8406 5.59567 13.6473 5.787C13.454 5.97833 13.3583 6.216 13.3603 6.5C13.3623 6.784 13.458 7.02133 13.6473 7.212C13.8366 7.40267 14.0743 7.49867 14.3603 7.5ZM12.7443 14.384V9.846H4.74429V14.384H12.7443ZM13.7443 15.384H3.74429V11.384H0.321289V6C0.321289 5.43333 0.513622 4.95833 0.898289 4.575C1.28296 4.19167 1.75729 3.99967 2.32129 3.999H15.1673C15.734 3.999 16.209 4.191 16.5923 4.575C16.9756 4.959 17.1673 5.43367 17.1673 5.999V11.384H13.7443V15.384Z" fill="#667085"/>
</svg>
