<svg width="17" height="10" viewBox="0 0 17 10" fill="none" xmlns="http://www.w3.org/2000/svg">
<path d="M2.125 7.875C2.125 8.43859 2.34888 8.97909 2.7474 9.3776C3.14591 9.77612 3.68641 10 4.25 10H12.75C13.3136 10 13.8541 9.77612 14.2526 9.3776C14.6511 8.97909 14.875 8.43859 14.875 7.875V5.75C14.875 5.18641 14.6511 4.64591 14.2526 4.2474C13.8541 3.84888 13.3136 3.625 12.75 3.625H4.25C3.68641 3.625 3.14591 3.84888 2.7474 4.2474C2.34888 4.64591 2.125 5.18641 2.125 5.75V7.875ZM0.53125 0.96875C0.390354 0.96875 0.255228 1.02472 0.1556 1.12435C0.0559709 1.22398 0 1.3591 0 1.5C0 1.6409 0.0559709 1.77602 0.1556 1.87565C0.255228 1.97528 0.390354 2.03125 0.53125 2.03125H16.4688C16.6096 2.03125 16.7448 1.97528 16.8444 1.87565C16.944 1.77602 17 1.6409 17 1.5C17 1.3591 16.944 1.22398 16.8444 1.12435C16.7448 1.02472 16.6096 0.96875 16.4688 0.96875H0.53125Z" fill="#667085"/>
</svg>
