<svg width="17" height="17" viewBox="0 0 17 17" fill="none" xmlns="http://www.w3.org/2000/svg">
<path d="M5.57828 16.9375H10.3597C10.4081 16.9373 10.4555 16.9231 10.4969 16.8962C10.5383 16.8694 10.5721 16.831 10.5945 16.7852C10.617 16.7394 10.6274 16.6879 10.6245 16.6363C10.6217 16.5846 10.6057 16.5348 10.5783 16.4922L8.18759 12.8022C8.08851 12.6493 7.84997 12.6493 7.75063 12.8022L5.35993 16.4922C5.33226 16.5347 5.31604 16.5846 5.31302 16.6363C5.31 16.688 5.3203 16.7396 5.34281 16.7855C5.36531 16.8314 5.39916 16.8699 5.44068 16.8967C5.48219 16.9235 5.52979 16.9376 5.57828 16.9375Z" fill="#667085"/>
<path d="M2.125 2.125C2.125 1.56141 2.34888 1.02091 2.7474 0.622398C3.14591 0.223883 3.68641 0 4.25 0H12.75C13.3136 0 13.8541 0.223883 14.2526 0.622398C14.6511 1.02091 14.875 1.56141 14.875 2.125V4.25C14.875 4.81359 14.6511 5.35409 14.2526 5.7526C13.8541 6.15112 13.3136 6.375 12.75 6.375H4.25C3.68641 6.375 3.14591 6.15112 2.7474 5.7526C2.34888 5.35409 2.125 4.81359 2.125 4.25V2.125ZM0.53125 7.96875C0.390354 7.96875 0.255228 8.02472 0.1556 8.12435C0.0559709 8.22398 0 8.3591 0 8.5C0 8.6409 0.0559709 8.77602 0.1556 8.87565C0.255228 8.97528 0.390354 9.03125 0.53125 9.03125H16.4688C16.6096 9.03125 16.7448 8.97528 16.8444 8.87565C16.944 8.77602 17 8.6409 17 8.5C17 8.3591 16.944 8.22398 16.8444 8.12435C16.7448 8.02472 16.6096 7.96875 16.4688 7.96875H0.53125Z" fill="#667085"/>
</svg>
