<svg width="16" height="17" viewBox="0 0 16 17" fill="none" xmlns="http://www.w3.org/2000/svg">
<path d="M3.6784 0.557868L4.2336 0L10.74 6.2409C10.9955 6.48595 11.1232 6.78164 11.1232 7.12797C11.1232 7.4743 10.9955 7.76999 10.74 8.01503L7.6168 11.0399C7.37147 11.2753 7.06853 11.3929 6.708 11.3929C6.34693 11.3929 6.04373 11.2753 5.7984 11.0399L2.6752 8.01426C2.41973 7.76871 2.292 7.47302 2.292 7.1272C2.292 6.78087 2.42 6.48518 2.676 6.24014L6.152 2.93053L3.6784 0.557868ZM6.7232 3.47842L3.2112 6.81796C3.15947 6.86707 3.12613 6.91874 3.1112 6.97296C3.0952 7.02719 3.0872 7.08346 3.0872 7.14178H10.3272C10.3272 7.08346 10.3197 7.02719 10.3048 6.97296C10.2899 6.91874 10.2565 6.86707 10.2048 6.81796L6.7232 3.47842ZM13.2616 12.1595C12.924 12.1595 12.6397 12.0488 12.4088 11.8273C12.1773 11.6052 12.0616 11.3323 12.0616 11.0085C12.0616 10.7793 12.1245 10.5532 12.2504 10.3301C12.3763 10.1071 12.5083 9.89556 12.6464 9.69554C12.7456 9.56151 12.8464 9.43106 12.9488 9.30419C13.0517 9.17732 13.156 9.04687 13.2616 8.91284C13.3672 9.04687 13.4712 9.17732 13.5736 9.30419C13.6765 9.43106 13.7779 9.56151 13.8776 9.69554C14.0157 9.89505 14.1475 10.1066 14.2728 10.3301C14.3987 10.5532 14.4616 10.7793 14.4616 11.0085C14.4616 11.3323 14.3459 11.6052 14.1144 11.8273C13.8835 12.0488 13.5992 12.1595 13.2616 12.1595ZM0 17V15.4653H16V17H0Z" fill="#667085"/>
</svg>
