<svg width="20" height="20" viewBox="0 0 20 20" fill="none" xmlns="http://www.w3.org/2000/svg">
<g clip-path="url(#clip0_54_4319)">
<path d="M1.66675 9.99999H18.3334M1.66675 9.99999C1.66675 14.6024 5.39771 18.3333 10.0001 18.3333M1.66675 9.99999C1.66675 5.39762 5.39771 1.66666 10.0001 1.66666M18.3334 9.99999C18.3334 14.6024 14.6025 18.3333 10.0001 18.3333M18.3334 9.99999C18.3334 5.39762 14.6025 1.66666 10.0001 1.66666M10.0001 1.66666C12.0845 3.94862 13.269 6.91002 13.3334 9.99999C13.269 13.09 12.0845 16.0514 10.0001 18.3333M10.0001 1.66666C7.91568 3.94862 6.73112 6.91002 6.66675 9.99999C6.73112 13.09 7.91568 16.0514 10.0001 18.3333" stroke="#007AB6" stroke-width="1.66667" stroke-linecap="round" stroke-linejoin="round"/>
</g>
<defs>
<clipPath id="clip0_54_4319">
<rect width="20" height="20" fill="white"/>
</clipPath>
</defs>
</svg>
