<svg width="24" height="24" viewBox="0 0 24 24" fill="none" xmlns="http://www.w3.org/2000/svg">
<path fill-rule="evenodd" clip-rule="evenodd" d="M13.7777 6.40716H12.4698C12.3407 6.40716 12.2354 6.51244 12.2354 6.64153V10.726C12.7429 10.2674 13.3464 9.91331 14.012 9.69699V6.64153C14.0121 6.51244 13.9068 6.40716 13.7777 6.40716ZM22.3162 21.5958C22.1708 21.7455 21.9295 21.7491 21.7798 21.6038L19.4886 19.3806C19.3389 19.2353 19.3353 18.9939 19.4805 18.8442L19.5277 18.7957L18.2446 17.5507C17.5155 18.1743 16.569 18.5511 15.5343 18.5511C13.23 18.5511 11.362 16.6831 11.362 14.3789C11.362 12.0746 13.23 10.2067 15.5343 10.2067C17.8386 10.2067 19.7065 12.0746 19.7065 14.3789C19.7065 15.269 19.4276 16.0938 18.9527 16.7711L20.2606 18.0403L20.3078 17.9917C20.453 17.842 20.6944 17.8384 20.8441 17.9836L23.1353 20.207C23.285 20.3523 23.2887 20.5935 23.1434 20.7433L22.3162 21.5958ZM15.5343 11.383C13.8797 11.383 12.5384 12.7243 12.5384 14.3789C12.5384 16.0335 13.8797 17.3748 15.5343 17.3748C17.1889 17.3748 18.5302 16.0335 18.5302 14.3789C18.5302 12.7243 17.1889 11.383 15.5343 11.383ZM4.18781 21.754V20.6305C4.18781 20.0126 4.82058 19.507 5.59392 19.507H8.10375V16.8873H2.39888C1.49203 16.8873 0.75 16.1453 0.75 15.2384V3.89494C0.75 2.98805 1.49198 2.24606 2.39888 2.24606H20.5496C21.4565 2.24606 22.1985 2.98805 22.1985 3.89494V15.2384C22.1985 16.1453 21.4565 16.8873 20.5496 16.8873H20.1494L19.9029 16.648C20.2564 15.969 20.4565 15.1973 20.4565 14.3789C20.4565 14.2886 20.454 14.1989 20.4491 14.1098H20.8197V3.8535C20.8197 3.72774 20.7168 3.62484 20.591 3.62484H2.35753C2.23177 3.62484 2.12888 3.72774 2.12888 3.8535V14.1098H10.6195C10.6147 14.1989 10.6121 14.2885 10.6121 14.3789C10.6121 16.863 12.453 18.9173 14.8448 19.2527V19.5069H17.3546C18.128 19.5069 18.7607 20.0125 18.7607 20.6304V21.7539H4.18781V21.754ZM5.87189 10.0576C5.7428 10.0576 5.63752 10.1629 5.63752 10.292V13.2317C5.63752 13.3608 5.7428 13.4661 5.87189 13.4661H7.1798C7.30889 13.4661 7.41417 13.3608 7.41417 13.2317V10.292C7.41417 10.1629 7.30889 10.0576 7.1798 10.0576H5.87189ZM15.7687 4.72969C15.6396 4.72969 15.5343 4.83497 15.5343 4.96406V9.45666C16.1608 9.45666 16.7598 9.57399 17.3109 9.78745V4.96406C17.3109 4.83497 17.2057 4.72969 17.0766 4.72969H15.7687ZM10.4788 8.27189C10.0428 8.27189 9.6068 8.27189 9.17081 8.27189C9.04172 8.27189 8.93644 8.37717 8.93644 8.50627V13.2317C8.93644 13.3608 9.04172 13.4661 9.17081 13.4661H10.4788C10.6079 13.4661 10.7131 13.3608 10.7131 13.2317C10.7131 11.5564 10.7131 10.1816 10.7131 8.50627C10.7131 8.37717 10.6079 8.27189 10.4788 8.27189Z" fill="white"/>
</svg>
