<svg width="24" height="24" viewBox="0 0 24 24" fill="none" xmlns="http://www.w3.org/2000/svg">
<path d="M8.8125 11.625H3.1875C2.56874 11.625 2.0625 11.1187 2.0625 10.5V8.61374C2.12249 8.62125 2.18626 8.625 2.25 8.625H4.125V9C4.125 9.20625 4.29375 9.375 4.5 9.375C4.70625 9.375 4.875 9.20625 4.875 9V8.625H7.08V9C7.08 9.20625 7.24875 9.375 7.455 9.375C7.66125 9.375 7.83 9.20625 7.83 9V8.625H9.75C9.81374 8.625 9.87751 8.62125 9.9375 8.61374V10.5C9.9375 11.1187 9.43126 11.625 8.8125 11.625ZM2.25 7.875C1.83751 7.875 1.5 7.53749 1.5 7.125V6.375C1.5 5.54624 2.17124 4.875 3 4.875H3.75V4.125C3.75 3.50624 4.25624 3 4.875 3H7.125C7.74376 3 8.25 3.50624 8.25 4.125V4.875H9C9.82876 4.875 10.5 5.54624 10.5 6.375V7.125C10.5 7.53749 10.1625 7.875 9.75 7.875H7.83V7.5C7.83 7.29375 7.66125 7.125 7.455 7.125C7.24875 7.125 7.08 7.29375 7.08 7.5V7.875H4.875V7.5C4.875 7.29375 4.70625 7.125 4.5 7.125C4.29375 7.125 4.125 7.29375 4.125 7.5V7.875H2.25ZM4.5 4.875H7.5V4.125C7.5 3.91875 7.33125 3.75 7.125 3.75H4.875C4.66875 3.75 4.5 3.91875 4.5 4.125V4.875ZM22.5 8.625V9.375C22.5 9.78749 22.1625 10.125 21.75 10.125H21.5925C21.5062 10.4325 21.3825 10.7287 21.225 11.01L21.3375 11.1225C21.63 11.415 21.63 11.8912 21.3375 12.1838L20.8088 12.7125C20.5163 13.005 20.04 13.005 19.7475 12.7125L19.635 12.6C19.3537 12.7575 19.0575 12.8812 18.75 12.9675V13.125C18.75 13.5375 18.4125 13.875 18 13.875H17.25C16.8375 13.875 16.5 13.5375 16.5 13.125V12.9675C16.1925 12.8812 15.8963 12.7575 15.615 12.6L15.5025 12.7125C15.21 13.005 14.7337 13.005 14.4412 12.7125L13.9125 12.1838C13.62 11.8912 13.62 11.415 13.9125 11.1225L14.025 11.01C13.8675 10.7287 13.7438 10.4325 13.6575 10.125H13.5C13.0875 10.125 12.75 9.78749 12.75 9.375V8.625C12.75 8.21248 13.0875 7.875 13.5 7.875H13.6575C13.7438 7.5675 13.8675 7.27125 14.025 6.99L13.9125 6.87749C13.62 6.585 13.62 6.10874 13.9125 5.81625L14.4412 5.28749C14.7337 4.995 15.21 4.995 15.5025 5.28749L15.615 5.39998C15.8963 5.24249 16.1925 5.11874 16.5 5.03249V4.875C16.5 4.46249 16.8375 4.125 17.25 4.125H18C18.4125 4.125 18.75 4.46249 18.75 4.875V5.03249C19.0575 5.11874 19.3537 5.24249 19.635 5.39998L19.7475 5.28749C20.04 4.995 20.5163 4.995 20.8088 5.28749L21.3375 5.81625C21.63 6.10874 21.63 6.585 21.3375 6.87749L21.225 6.99C21.3825 7.27125 21.5062 7.5675 21.5925 7.875H21.75C22.1625 7.875 22.5 8.21248 22.5 8.625ZM20.25 9C20.25 8.295 19.9688 7.63875 19.47 7.17C18.9862 6.65625 18.33 6.375 17.625 6.375C16.1775 6.375 15 7.5525 15 9C15 9.70125 15.2737 10.3575 15.7687 10.8563C16.2638 11.3512 16.9238 11.625 17.625 11.625C19.0725 11.625 20.25 10.4475 20.25 9ZM17.625 7.125C16.59 7.125 15.75 7.965 15.75 9C15.75 9.49873 15.945 9.97124 16.3012 10.3237C16.6537 10.68 17.1262 10.875 17.625 10.875C18.66 10.875 19.5 10.035 19.5 9C19.5 8.49749 19.305 8.04748 18.9413 7.69874C18.5775 7.31998 18.1275 7.125 17.625 7.125ZM18.8857 14.895L16.1632 15.6862C16.152 15.825 16.1294 15.96 16.0919 16.095C16.0844 16.1137 16.0807 16.1325 16.0732 16.1513C15.8744 16.7812 15.3794 17.2875 14.7569 17.5012C14.5544 17.58 14.3144 17.6213 14.0669 17.6213H11.5281C11.321 17.6213 11.1531 17.4533 11.1531 17.2463C11.1531 17.0391 11.321 16.8713 11.5281 16.8713H14.0669C14.2244 16.8713 14.3744 16.845 14.5132 16.7925C14.9144 16.6537 15.2294 16.3312 15.3607 15.9225V15.9188C15.4215 15.7179 15.4429 15.4875 15.3927 15.2434C15.261 14.6032 14.6578 14.1675 14.0041 14.1675H11.457C11.2604 14.1675 11.0679 14.1116 10.9018 14.0062L9.7018 13.245C9.1921 12.9217 8.60097 12.75 7.99736 12.75H3.75039C3.54414 12.75 3.37539 12.9188 3.37539 13.125V18.3488C3.37539 18.555 3.54414 18.7238 3.75039 18.7238H5.79046C5.91046 18.7238 6.03047 18.7575 6.1317 18.8175L8.72679 20.3287C9.49178 20.775 10.3468 21 11.2056 21C11.9218 21 12.6419 20.8425 13.3131 20.5275L19.8458 17.43C20.4795 17.1338 20.7795 16.41 20.547 15.75C20.3071 15.0713 19.5795 14.6962 18.8857 14.895Z" fill="white"/>
</svg>
