<svg width="24" height="24" viewBox="0 0 24 24" fill="none" xmlns="http://www.w3.org/2000/svg">
<path d="M17.0323 12.4265V15.8136H17.8065V10.4911C17.8065 10.0635 18.153 9.71686 18.5806 9.71686H19.3548C19.7824 9.71686 20.129 10.0635 20.129 10.4911V15.8136H20.5161C20.9437 15.8136 21.2903 16.1602 21.2903 16.5878C21.2903 17.0154 20.9437 17.362 20.5161 17.362C20.3766 17.362 11.3062 17.362 11.2258 17.362C10.7982 17.362 10.4516 17.0154 10.4516 16.5878C10.4516 16.1602 10.7982 15.8136 11.2258 15.8136H11.6129V14.362C11.6129 13.9345 11.9595 13.5878 12.3871 13.5878H13.1613C13.5889 13.5878 13.9355 13.9345 13.9355 14.362V15.8136H14.7097V12.4265C14.7097 11.9989 15.0563 11.6523 15.4839 11.6523H16.2581C16.6857 11.6523 17.0323 11.999 17.0323 12.4265ZM13.1613 6.13621C13.1613 5.70862 12.8147 5.36202 12.3871 5.36202H8.90323C8.47563 5.36202 8.12903 5.70862 8.12903 6.13621C8.12903 6.56381 8.47563 6.91041 8.90323 6.91041H12.3871C12.8147 6.91041 13.1613 6.56381 13.1613 6.13621ZM10.4516 9.76525H15.2903C15.7179 9.76525 16.0645 9.41865 16.0645 8.99105C16.0645 8.56346 15.7179 8.21686 15.2903 8.21686H10.4516C10.024 8.21686 9.67742 8.56346 9.67742 8.99105C9.67742 9.41865 10.024 9.76525 10.4516 9.76525ZM21.6774 2.65234H5.90323C4.62256 2.65234 3.58065 3.69426 3.58065 4.97492V8.56752C2.63371 9.21136 2.01044 10.2972 2.01044 11.5261C2.01044 13.4976 3.61432 15.1015 5.58581 15.1015C7.55729 15.1015 9.16123 13.4976 9.16123 11.5261C9.16123 9.39126 7.28477 7.70459 5.12908 7.98093V4.97492C5.12908 4.548 5.4764 4.20073 5.90327 4.20073H21.6775C22.1043 4.20073 22.4517 4.548 22.4517 4.97492V17.7491C22.4517 18.176 22.1043 18.5233 21.6775 18.5233H11.1028C10.9665 17.8352 10.5042 17.2421 9.84847 16.9493L7.97056 16.1108C7.77571 16.0238 7.68339 16.0435 7.00321 16.0435C6.64689 16.0435 6.33658 16.2867 6.25147 16.6327C6.07771 17.3385 5.06705 17.339 4.89339 16.6328C4.80823 16.2868 4.49792 16.0435 4.1416 16.0435C3.45881 16.0435 3.36823 16.0242 3.17419 16.1108L1.29629 16.9493C0.508839 17.301 0 18.0854 0 18.9478V20.5712C0 20.9988 0.346597 21.3454 0.774194 21.3454H10.3706C10.7982 21.3454 11.1448 20.9988 11.1448 20.5712V20.0717H21.6774C22.9581 20.0717 24 19.0298 24 17.7492V4.97497C24 3.69426 22.9581 2.65234 21.6774 2.65234Z" fill="white"/>
</svg>
