<svg width="24" height="24" viewBox="0 0 24 24" fill="none" xmlns="http://www.w3.org/2000/svg">
<path fill-rule="evenodd" clip-rule="evenodd" d="M17 11.25C20.174 11.25 22.75 13.826 22.75 17C22.75 20.174 20.174 22.75 17 22.75C13.826 22.75 11.25 20.174 11.25 17C11.25 13.826 13.826 11.25 17 11.25ZM16.25 14.5V17C16.25 17.414 16.586 17.75 17 17.75H19.5C19.914 17.75 20.25 17.414 20.25 17C20.25 16.586 19.914 16.25 19.5 16.25H17.75V14.5C17.75 14.086 17.414 13.75 17 13.75C16.586 13.75 16.25 14.086 16.25 14.5Z" fill="white"/>
<path fill-rule="evenodd" clip-rule="evenodd" d="M6.25 2.5V2C6.25 1.586 6.586 1.25 7 1.25C7.414 1.25 7.75 1.586 7.75 2V2.5H6.25Z" fill="white"/>
<path fill-rule="evenodd" clip-rule="evenodd" d="M16.25 2.5V2C16.25 1.586 16.586 1.25 17 1.25C17.414 1.25 17.75 1.586 17.75 2V2.5H16.25Z" fill="white"/>
<path fill-rule="evenodd" clip-rule="evenodd" d="M12.467 22H4C3.271 22 2.571 21.71 2.055 21.195C1.54 20.679 1.25 19.979 1.25 19.25V8.5H22.75V13.465C21.561 11.536 19.43 10.25 17 10.25C13.275 10.25 10.25 13.275 10.25 17C10.25 18.981 11.106 20.765 12.467 22ZM1.25 7V5.25C1.25 4.521 1.54 3.821 2.055 3.305C2.571 2.79 3.271 2.5 4 2.5H6.25V4.5C6.25 4.914 6.586 5.25 7 5.25C7.414 5.25 7.75 4.914 7.75 4.5V2.5H16.25V4.5C16.25 4.914 16.586 5.25 17 5.25C17.414 5.25 17.75 4.914 17.75 4.5V2.5H20C20.729 2.5 21.429 2.79 21.945 3.305C22.46 3.821 22.75 4.521 22.75 5.25V7H1.25Z" fill="white"/>
</svg>
