<svg width="24" height="24" viewBox="0 0 24 24" fill="none" xmlns="http://www.w3.org/2000/svg">
<path fill-rule="evenodd" clip-rule="evenodd" d="M19.3562 18.7501C19.2576 18.7489 19.1598 18.7672 19.0683 18.8039C18.9768 18.8406 18.8934 18.895 18.823 18.9639C17.0005 20.749 14.5523 21.7486 12.0012 21.7486C9.45807 21.7486 7.01653 20.7552 5.19552 18.98C5.05313 18.8411 4.8614 18.7645 4.66251 18.767C4.46362 18.7695 4.27386 18.8509 4.13497 18.9932C3.99609 19.1356 3.91946 19.3273 3.92193 19.5262C3.92441 19.7251 4.00579 19.9149 4.14817 20.0538C6.24887 22.1017 9.06739 23.2486 12.0012 23.2486C14.9442 23.2486 17.7708 22.0955 19.8733 20.0362C20.0152 19.8969 20.0961 19.7069 20.098 19.508C20.0999 19.3091 20.0228 19.1176 19.8835 18.9756C19.7446 18.8335 19.5549 18.7524 19.3562 18.7501Z" fill="white"/>
<path fill-rule="evenodd" clip-rule="evenodd" d="M4.5 6.75C3.26624 6.75 2.25 7.76624 2.25 9V15C2.25 16.2338 3.26624 17.25 4.5 17.25H14.25C15.4838 17.25 16.5 16.2338 16.5 15V13.6304L19.9424 16.582C20.6114 17.1555 21.75 16.6312 21.75 15.75V8.25C21.75 7.8094 21.4649 7.45843 21.0967 7.28906C20.7284 7.11969 20.2769 7.13124 19.9424 7.41797L16.5 10.3696V9C16.5 7.76624 15.4838 6.75 14.25 6.75H4.5Z" fill="white"/>
<path fill-rule="evenodd" clip-rule="evenodd" d="M12.0012 0.75C9.0674 0.75 6.24891 1.89691 4.14817 3.94482C4.00578 4.08371 3.92441 4.27349 3.92193 4.47237C3.91946 4.67126 3.99609 4.86298 4.13497 5.00537C4.27386 5.14775 4.46362 5.22912 4.66251 5.2316C4.8614 5.23407 5.05312 5.15746 5.19551 5.01858C7.01657 3.24333 9.45808 2.25 12.0012 2.25C14.5523 2.25 17.0005 3.24957 18.823 5.03467C18.9652 5.17375 19.1568 5.25064 19.3557 5.24844C19.5546 5.24625 19.7444 5.16515 19.8835 5.02297C20.0228 4.88097 20.0999 4.68946 20.098 4.49057C20.0961 4.29168 20.0152 4.10171 19.8732 3.96243C17.7708 1.90308 14.9442 0.75 12.0012 0.75Z" fill="white"/>
</svg>
