<svg width="64" height="17" viewBox="0 0 64 17" fill="none" xmlns="http://www.w3.org/2000/svg">
<g clip-path="url(#clip0_54_3972)">
<path d="M2.5662 11.984C2.86647 12.6932 3.24152 13.2388 3.69134 13.6185C4.14116 13.9994 4.63655 14.1887 5.17867 14.1887C5.7208 14.1887 6.19165 14.0239 6.55034 13.6945C6.90903 13.365 7.08779 12.9525 7.08779 12.4548C7.08779 12.0529 6.95226 11.6884 6.6812 11.3624C6.41014 11.0376 5.96849 10.7058 5.35393 10.3693L4.77208 10.0515C3.44014 9.34228 2.63981 8.87026 2.36875 8.63542C1.8126 8.15288 1.42003 7.67151 1.18869 7.19248C0.958524 6.71345 0.842856 6.15146 0.842856 5.50769C0.842856 4.0963 1.31605 2.94195 2.26359 2.04581C3.21114 1.14967 4.44494 0.701019 5.96732 0.701019C7.03521 0.701019 7.97108 0.94404 8.77608 1.43125C9.58109 1.91846 10.2097 2.61832 10.663 3.53315L8.99457 4.69684C8.70131 3.99465 8.33093 3.46772 7.88111 3.11604C7.43129 2.76436 6.89501 2.58911 6.27344 2.58911C5.75351 2.58911 5.32472 2.75034 4.98356 3.07165C4.64356 3.39411 4.47298 3.79604 4.47298 4.27857C4.47298 4.68867 4.61318 5.04619 4.89593 5.35347C5.17751 5.66075 5.7208 6.01944 6.5258 6.42837L6.80037 6.57091C8.30056 7.3175 9.20371 7.81873 9.51099 8.0746C10.0519 8.52092 10.4422 8.99061 10.6794 9.48483C10.9165 9.97905 11.0357 10.555 11.0357 11.2128C11.0357 12.6546 10.5333 13.8288 9.52734 14.7355C8.52138 15.6433 7.21397 16.0966 5.60396 16.0966C4.45545 16.0966 3.44014 15.8443 2.55919 15.3395C1.67707 14.8348 1.00643 14.1209 0.544922 13.1991L2.56386 11.9816L2.5662 11.984Z" fill="#FFC107"/>
<path d="M20.8347 13.2902C20.4246 14.1981 19.8732 14.8886 19.178 15.3641C18.4828 15.8396 17.6743 16.0768 16.7524 16.0768C15.3329 16.0768 14.175 15.5978 13.2789 14.6397C12.3827 13.6816 11.9341 12.4373 11.9341 10.9091C11.9341 9.38088 12.3968 8.1167 13.3221 7.13994C14.2475 6.16319 15.4193 5.6748 16.8389 5.6748C17.8192 5.6748 18.6382 5.88511 19.2971 6.30573C19.9561 6.72634 20.4316 7.34674 20.7237 8.16577L19.3521 8.95559C19.199 8.34804 18.9665 7.89354 18.6557 7.58976C18.3449 7.28599 17.9629 7.1341 17.5095 7.1341C16.8295 7.1341 16.3085 7.45073 15.9463 8.08398C15.5841 8.71724 15.403 9.63674 15.403 10.8437C15.403 12.1382 15.556 13.0811 15.8633 13.6688C16.1706 14.2576 16.6601 14.5521 17.3343 14.5521C17.832 14.5521 18.2853 14.3733 18.6954 14.0146C19.1055 13.6559 19.4011 13.1734 19.5846 12.5659L20.8359 13.2902H20.8347Z" fill="#FFC107"/>
<path d="M22.2488 15.7146V0H25.4197V9.32826H27.7576V5.98088H30.9286V15.7146H27.7576V10.9079H25.4197V15.7146H22.2488Z" fill="#FFC107"/>
<path d="M35.328 15.7138C34.5744 15.7138 34.0428 15.5479 33.7308 15.2149C33.42 14.882 33.2646 14.306 33.2646 13.4869V8.20823C33.2646 7.38921 33.42 6.8132 33.7308 6.48022C34.0416 6.14723 34.5744 5.98132 35.328 5.98132H39.8496V7.44062H37.4462C37.0443 7.44062 36.7744 7.51422 36.6401 7.66027C36.5045 7.80632 36.4368 8.09607 36.4368 8.5272V10.1185H39.4874V11.5778H36.4368V13.2018C36.4368 13.626 36.5022 13.9075 36.6342 14.0466C36.7662 14.1856 37.0361 14.2545 37.4462 14.2545H40.0026V15.7138H35.328Z" fill="white"/>
<path d="M41.6026 15.7138V14.2545H44.1917C44.7911 14.2545 45.2105 14.1728 45.4489 14.008C45.686 13.8433 45.8052 13.5675 45.8052 13.1796C45.8052 12.6819 45.318 12.287 44.3459 11.9949C44.0527 11.9073 43.8225 11.8384 43.6543 11.787C42.6962 11.4727 42.0396 11.1175 41.6844 10.7226C41.3292 10.3277 41.1516 9.79021 41.1516 9.10905C41.1516 8.09257 41.4869 7.31677 42.1552 6.78282C42.8247 6.24888 43.7956 5.98132 45.0691 5.98132H47.6045V7.44062H45.4091C45.0505 7.44062 44.7689 7.50488 44.5644 7.63223C44.3599 7.76075 44.2571 7.93834 44.2571 8.16501C44.2571 8.56692 44.6813 8.89991 45.5307 9.16396C45.7211 9.22939 45.8636 9.2773 45.9583 9.3065C46.997 9.64299 47.6992 10.0274 48.0648 10.4585C48.4305 10.8908 48.614 11.4972 48.614 12.28C48.614 13.3479 48.2798 14.188 47.6104 14.799C46.9409 15.4101 46.0167 15.715 44.839 15.715H41.6014L41.6026 15.7138Z" fill="white"/>
<path d="M51.6501 15.715V7.64976H49.0388V5.98132H57.4336V7.64976H54.8222V15.715H51.6513H51.6501Z" fill="white"/>
<path d="M58.6404 15.715V5.98132H61.8113V15.715H58.6404Z" fill="#FFC107"/>
<path d="M58.593 2.84589C58.593 2.38555 58.7554 1.99181 59.0813 1.66584C59.4073 1.33986 59.7964 1.17746 60.2497 1.17746C60.703 1.17746 61.1131 1.3387 61.4344 1.66C61.7557 1.98247 61.917 2.37737 61.917 2.84472C61.917 3.31207 61.7546 3.69763 61.4286 4.01893C61.1026 4.3414 60.71 4.50147 60.2485 4.50147C59.787 4.50147 59.405 4.33906 59.0802 4.01309C58.7542 3.68711 58.5918 3.29804 58.5918 2.84472L58.593 2.84589Z" fill="#FFC107"/>
</g>
<defs>
<clipPath id="clip0_54_3972">
<rect width="62.9102" height="16.0966" fill="white" transform="translate(0.544922)"/>
</clipPath>
</defs>
</svg>
