<svg width="135" height="134" viewBox="0 0 135 134" fill="none" xmlns="http://www.w3.org/2000/svg">
<path d="M113.562 29.3125C113.562 28.7572 113.342 28.2246 112.949 27.832C112.557 27.4393 112.024 27.2188 111.469 27.2188H98.9062C98.351 27.2188 97.8184 27.4393 97.4257 27.832C97.0331 28.2246 96.8125 28.7572 96.8125 29.3125V77.4688H88.4375V54.4375C88.4375 53.8822 88.2169 53.3496 87.8243 52.957C87.4316 52.5643 86.899 52.3438 86.3438 52.3438H73.7812C73.226 52.3438 72.6934 52.5643 72.3007 52.957C71.9081 53.3496 71.6875 53.8822 71.6875 54.4375V77.4688H63.3125V37.6875C63.3125 37.1322 63.0919 36.5996 62.6993 36.207C62.3066 35.8143 61.774 35.5938 61.2188 35.5938H48.6562C48.101 35.5938 47.5684 35.8143 47.1757 36.207C46.7831 36.5996 46.5625 37.1322 46.5625 37.6875V77.4688H38.1875V48.1562C38.1875 47.601 37.9669 47.0684 37.5743 46.6757C37.1816 46.2831 36.649 46.0625 36.0938 46.0625H23.5312C22.976 46.0625 22.4434 46.2831 22.0507 46.6757C21.6581 47.0684 21.4375 47.601 21.4375 48.1562V77.4688H2.59375V81.6562H15.1562V90.0312C15.1562 90.5865 15.3768 91.1191 15.7695 91.5118C16.1621 91.9044 16.6947 92.125 17.25 92.125H23.2256C24.1982 95.5598 25.5699 98.8689 27.3126 101.984L23.0853 106.212C22.6928 106.604 22.4723 107.137 22.4723 107.692C22.4723 108.247 22.6928 108.78 23.0853 109.172L37.8902 123.977C38.2828 124.37 38.8153 124.59 39.3705 124.59C39.9257 124.59 40.4581 124.37 40.8507 123.977L45.078 119.75C48.1934 121.493 51.5025 122.865 54.9375 123.837V129.812C54.9375 130.368 55.1581 130.9 55.5507 131.293C55.9434 131.686 56.476 131.906 57.0312 131.906H77.9688C78.524 131.906 79.0566 131.686 79.4493 131.293C79.8419 130.9 80.0625 130.368 80.0625 129.812V123.837C83.4975 122.865 86.8066 121.493 89.922 119.75L94.1493 123.977C94.5419 124.37 95.0743 124.59 95.6295 124.59C96.1847 124.59 96.7172 124.37 97.1098 123.977L111.915 109.172C112.307 108.78 112.528 108.247 112.528 107.692C112.528 107.137 112.307 106.604 111.915 106.212L107.687 101.984C109.43 98.8689 110.802 95.5598 111.774 92.125H117.75C118.305 92.125 118.838 91.9044 119.231 91.5118C119.623 91.1191 119.844 90.5865 119.844 90.0312V81.6562H132.406V77.4688H113.562V29.3125ZM101 31.4062H109.375V77.4688H101V31.4062ZM94.612 81.6562C94.0948 88.4933 91.0137 94.8826 85.9858 99.5445C80.958 104.206 74.3545 106.797 67.4979 106.797C60.6413 106.797 54.0379 104.206 49.01 99.5445C43.9821 94.8826 40.901 88.4933 40.3838 81.6562H94.612ZM75.875 56.5312H84.25V77.4688H75.875V56.5312ZM50.75 39.7812H59.125V77.4688H50.75V39.7812ZM25.625 50.25H34V77.4688H25.625V50.25ZM115.656 87.9375H110.162C109.693 87.9377 109.238 88.0953 108.87 88.385C108.501 88.6746 108.24 89.0796 108.129 89.535C107.119 93.6615 105.482 97.6087 103.276 101.239C103.033 101.64 102.932 102.11 102.988 102.575C103.044 103.04 103.255 103.473 103.586 103.804L107.474 107.692L95.6295 119.536L91.7414 115.648C91.4098 115.317 90.9766 115.107 90.5111 115.051C90.0457 114.995 89.5751 115.097 89.1745 115.34C85.5447 117.547 81.5973 119.183 77.4704 120.19C77.015 120.301 76.6103 120.562 76.321 120.931C76.0317 121.3 75.8747 121.756 75.875 122.225V127.719H59.125V122.225C59.1253 121.756 58.9683 121.3 58.679 120.931C58.3897 120.562 57.985 120.301 57.5296 120.19C53.4027 119.183 49.4553 117.547 45.8255 115.34C45.4249 115.097 44.9543 114.995 44.4889 115.051C44.0234 115.107 43.5902 115.317 43.2586 115.648L39.3705 119.536L27.5261 107.692L31.4142 103.804C31.7453 103.473 31.9557 103.04 32.0119 102.575C32.0681 102.11 31.9667 101.64 31.7241 101.239C29.5177 97.6087 27.8809 93.6615 26.8708 89.535C26.7597 89.0796 26.4989 88.6746 26.1303 88.385C25.7617 88.0953 25.3065 87.9377 24.8377 87.9375H19.3438V81.6562H36.2005C36.713 89.6095 40.2337 97.0695 46.0476 102.521C51.8614 107.972 59.5323 111.006 67.5021 111.006C75.4719 111.006 83.1428 107.972 88.9566 102.521C94.7705 97.0695 98.2912 89.6095 98.8037 81.6562H115.656V87.9375Z" fill="#007AB6"/>
<path d="M109.376 18.8438V4.1875C109.376 3.6322 109.155 3.09965 108.763 2.707C108.37 2.31434 107.838 2.09375 107.282 2.09375H92.626V6.28125H102.481L79.8123 30.6944L56.1947 12.9812C55.8156 12.6966 55.3511 12.549 54.8772 12.5627C54.4032 12.5764 53.948 12.7505 53.5859 13.0566L26.3672 36.0879L29.0723 39.2871L55.0181 17.3321L78.8073 35.175C79.221 35.4857 79.7352 35.6321 80.2506 35.5861C80.7659 35.5401 81.246 35.3049 81.5982 34.9258L105.188 9.52028V18.8438H109.376Z" fill="#007AB6"/>
</svg>
